<?xml version="1.0" encoding="utf-8"?>
<!-- Generator: Adobe Illustrator 16.0.0, SVG Export Plug-In . SVG Version: 6.00 Build 0)  -->
<!DOCTYPE svg PUBLIC "-//W3C//DTD SVG 1.1//EN" "http://www.w3.org/Graphics/SVG/1.1/DTD/svg11.dtd">
<svg version="1.1" id="Layer_1" xmlns="http://www.w3.org/2000/svg" xmlns:xlink="http://www.w3.org/1999/xlink" x="0px" y="0px"
	 width="70.87px" height="70.87px" viewBox="0 0 70.87 70.87" enable-background="new 0 0 70.87 70.87" xml:space="preserve">
<g>
	<path fill="none" stroke="#231F20" stroke-miterlimit="10" d="M47.971,23.048c0.551,0,1,0.45,1,1v28.67c0,0.55-0.449,1-1,1H22.67
		c-0.55,0-1-0.45-1-1v-32.62c0-0.55,0.45-1,1-1h21.211c0.551,0,1,0.45,1,1v1.95c0,0.55,0.45,1,1,1H47.971z"/>
</g>
<path fill="#231F20" d="M49.039,22.997c0.33,0.32,0.445,0.738,0.256,0.933l0,0c-0.188,0.194-0.609,0.092-0.939-0.228l-3.924-3.807
	c-0.33-0.32-0.443-0.738-0.256-0.932l0,0c0.188-0.195,0.609-0.093,0.939,0.227L49.039,22.997z"/>
<text transform="matrix(1 0 0 1 29.2373 39.8643)" fill="#231F20" font-family="'ArialRoundedMTBold'" font-size="6">PDF</text>
<path fill="none" stroke="#231F20" stroke-miterlimit="10" d="M42.352,43.781v1.92h3.14v-16.25H25.4v16.25h10.17v-1.92"/>
<polyline fill="none" stroke="#231F20" stroke-miterlimit="10" points="42.352,43.781 43.74,43.781 43.74,31.251 27.32,31.251 
	27.32,43.781 35.57,43.781 "/>
<polygon fill="#231F20" points="40.473,44.873 37.816,46.559 37.364,43.12 37.364,43.12 "/>
<line fill="none" stroke="#231F20" stroke-miterlimit="10" x1="33.195" y1="43.781" x2="36.07" y2="43.781"/>
<line fill="none" stroke="#231F20" stroke-miterlimit="10" x1="41.867" y1="43.789" x2="42.648" y2="43.789"/>
<rect x="39.106" y="45.35" transform="matrix(-0.8481 0.5299 -0.5299 -0.8481 97.4554 64.5547)" fill="#231F20" width="0.734" height="1.797"/>
</svg>
