<?xml version="1.0" encoding="utf-8"?>
<!-- Generator: Adobe Illustrator 16.0.0, SVG Export Plug-In . SVG Version: 6.00 Build 0)  -->
<!DOCTYPE svg PUBLIC "-//W3C//DTD SVG 1.1//EN" "http://www.w3.org/Graphics/SVG/1.1/DTD/svg11.dtd">
<svg version="1.1" id="Layer_1" xmlns="http://www.w3.org/2000/svg" xmlns:xlink="http://www.w3.org/1999/xlink" x="0px" y="0px"
	 width="31.18px" height="36.85px" viewBox="0 0 31.18 36.85" enable-background="new 0 0 31.18 36.85" xml:space="preserve">
<g>
	<path fill="none" stroke="#231F20" stroke-miterlimit="10" d="M28.247,5.182c0.551,0,1,0.45,1,1v28.669c0,0.551-0.449,1-1,1H2.946
		c-0.55,0-1-0.449-1-1V2.232c0-0.55,0.45-1,1-1h21.211c0.551,0,1,0.45,1,1v1.95c0,0.55,0.45,1,1,1H28.247z"/>
</g>
<path fill="#231F20" d="M29.315,5.131c0.33,0.32,0.445,0.738,0.256,0.933l0,0c-0.188,0.194-0.609,0.092-0.939-0.228l-3.924-3.807
	c-0.33-0.32-0.443-0.738-0.256-0.932l0,0c0.188-0.195,0.609-0.093,0.939,0.227L29.315,5.131z"/>
<text transform="matrix(1 0 0 1 9.5137 21.998)" fill="#231F20" font-family="'ArialRoundedMTBold'" font-size="6">PDF</text>
<path fill="none" stroke="#231F20" stroke-miterlimit="10" d="M22.628,25.916v1.92h3.14v-16.25H5.677v16.25h10.17v-1.92"/>
<polyline fill="none" stroke="#231F20" stroke-miterlimit="10" points="22.628,25.916 24.017,25.916 24.017,13.385 7.597,13.385 
	7.597,25.916 15.847,25.916 "/>
<polygon fill="#231F20" points="20.749,27.008 18.093,28.693 17.641,25.254 17.641,25.254 "/>
<line fill="none" stroke="#231F20" stroke-miterlimit="10" x1="13.472" y1="25.916" x2="16.347" y2="25.916"/>
<line fill="none" stroke="#231F20" stroke-miterlimit="10" x1="22.144" y1="25.924" x2="22.925" y2="25.924"/>
<rect x="19.383" y="27.484" transform="matrix(-0.8481 0.5299 -0.5299 -0.8481 51.538 41.9887)" fill="#231F20" width="0.734" height="1.798"/>
</svg>
